# xmcd
#
# Track frame offsets: 
#        150
#        24635
#        40509
#        55281
#        70516
#        89175
#        120723
#        137178
#        158205
#        169822
#        189080
#        221511
#        251969
#
# Disc length: 3515 seconds
#
# Revision: 0
# Processed by: cddbd v1.5.2PL0 Copyright (c) Steve Scherf et al.
# Submitted via: ExactAudioCopy v0.99pb5
#
DISCID=b80db90d
DTITLE=Rainer Schlegemann - Soulship Haven
DYEAR=1999
DGENRE=Blues
TTITLE0=Song
TTITLE1=Love
TTITLE2=Waltz For Mirja
TTITLE3=London
TTITLE4=Invocation Of Death
TTITLE5=Spell Of Sleep
TTITLE6=Night
TTITLE7=The Sphere
TTITLE8=Those Images
TTITLE9=Spring
TTITLE10=Pendlebury Sunday
TTITLE11=Mary
TTITLE12=Lullaby
EXTD=
EXTT0=
EXTT1=
EXTT2=
EXTT3=
EXTT4=
EXTT5=
EXTT6=
EXTT7=
EXTT8=
EXTT9=
EXTT10=
EXTT11=
EXTT12=
PLAYORDER=
